Coordinates
version=1
nRows=29
nColumns=24
inDegrees=yes

Units are S.I. units (second, meters, Newtons, ...)
Angles are in degrees.

endheader
time	pelvis_tilt	pelvis_list	pelvis_rotation	pelvis_tx	pelvis_ty	pelvis_tz	hip_flexion_r	hip_adduction_r	hip_rotation_r	knee_angle_r	ankle_angle_r	subtalar_angle_r	mtp_angle_r	hip_flexion_l	hip_adduction_l	hip_rotation_l	knee_angle_l	ankle_angle_l	subtalar_angle_l	mtp_angle_l	lumbar_extension	lumbar_bending	lumbar_rotation
      1.64000000	     -9.96142763	     -2.49055842	     -0.49368299	     -0.58673830	      1.21397421	     -0.82303324	     -2.69443872	     10.55843683	      7.20572654	    -11.78866169	     12.58282498	      1.47760814	     11.19691545	     34.68642591	      4.36401597	      6.91837840	     -7.93245213	     -1.65138503	     -3.45107619	      9.17086645	     -4.18333106	      4.46596474	      7.53118257
      1.64500000	     -9.92091674	     -2.47750154	     -0.57732899	     -0.58091422	      1.21356078	     -0.82314609	     -2.82943608	     10.49401364	      7.11660330	    -12.45153967	     12.71101453	      2.12865465	     11.70896847	     34.73856141	      4.51391365	      7.17878959	     -8.72026444	     -2.27942766	     -3.58815317	      9.00504702	     -4.17464233	      4.37410536	      7.56815915
      1.65000000	     -9.83452620	     -2.45291559	     -0.62324992	     -0.57503460	      1.21325090	     -0.82328466	     -3.02438635	     10.41149477	      6.98637805	    -13.08864100	     12.74745554	      2.68821333	     12.32297202	     34.74770308	      4.69462329	      7.48310705	     -9.54587721	     -3.01443494	     -3.85631167	      9.03834518	     -4.20624296	      4.26152601	      7.55011439
      1.65500000	     -9.75660992	     -2.41524874	     -0.66448965	     -0.56910743	      1.21300285	     -0.82342225	     -3.19133415	     10.31174672	      6.84896953	    -13.75458521	     12.74420296	      3.25053852	     12.96728667	     34.77731060	      4.88773341	      7.79731308	    -10.41419140	     -3.82484515	     -4.19239847	      9.10580886	     -4.22173010	      4.12838087	      7.55415198
      1.66000000	     -9.65894082	     -2.36771606	     -0.67610643	     -0.56314586	      1.21283805	     -0.82358881	     -3.36341612	     10.19459211	      6.64958703	    -14.43877566	     12.68761375	      3.83781506	     13.67291331	     34.80165507	      5.10580842	      8.13401159	    -11.33049068	     -4.66703610	     -4.57923319	      9.17298074	     -4.25967953	      3.97784302	      7.51950656
      1.66500000	     -9.55982118	     -2.30718540	     -0.67262895	     -0.55713167	      1.21275528	     -0.82376317	     -3.51346331	     10.05894350	      6.41239784	    -15.15640263	     12.59251719	      4.43540646	     14.44700599	     34.83162963	      5.34056710	      8.47286711	    -12.28136217	     -5.51408674	     -4.98932478	      9.23024722	     -4.28995857	      3.80698347	      7.48212684
      1.67000000	     -9.46228387	     -2.24139926	     -0.64417131	     -0.55107545	      1.21274461	     -0.82395110	     -3.64048679	      9.91393287	      6.12910609	    -15.89854638	     12.41980066	      5.04876379	     15.24899159	     34.87933806	      5.58991146	      8.80838594	    -13.28036255	     -6.32156058	     -5.36162480	      9.25578670	     -4.31672352	      3.62073747	      7.43206370
      1.67500000	     -9.35511378	     -2.16815302	     -0.58891762	     -0.54496963	      1.21281153	     -0.82419933	     -3.75145540	      9.74905516	      5.77275856	    -16.67420813	     12.18890157	      5.69843927	     16.12846432	     34.92088991	      5.86238739	      9.14899042	    -14.31006823	     -7.07443825	     -5.72262204	      9.25101420	     -4.34832255	      3.43706037	      7.35977655
      1.68000000	     -9.24268683	     -2.09192009	     -0.51619859	     -0.53884655	      1.21295600	     -0.82446595	     -3.82950877	      9.57490573	      5.36660332	    -17.50085572	     11.92477339	      6.36697025	     17.09760314	     34.95492577	      6.14456203	      9.50130201	    -15.35594533	     -7.77015305	     -6.06279666	      9.22870895	     -4.39006681	      3.24600199	      7.28626897
      1.68500000	     -9.12946581	     -2.00844505	     -0.42261282	     -0.53266503	      1.21318732	     -0.82475947	     -3.87576699	      9.38475772	      4.90820836	    -18.36889763	     11.56517967	      7.03766693	     18.11479478	     34.97630698	      6.44149061	      9.83167292	    -16.40559375	     -8.36450919	     -6.35069347	      9.19502215	     -4.42652847	      3.04769243	      7.19372923
      1.69000000	     -8.98977196	     -1.89115179	     -0.32636394	     -0.52642985	      1.21351968	     -0.82503274	     -3.89775623	      9.14829660	      4.38809817	    -19.31910039	     11.21858281	      7.69027154	     19.33965755	     34.93434222	      6.76478544	     10.10565128	    -17.41690273	     -8.87431053	     -6.68068025	      9.13074071	     -4.48433725	      2.80740482	      7.12200467
      1.69500000	     -8.87557103	     -1.80177498	     -0.18495066	     -0.52016427	      1.21388716	     -0.82538669	     -3.85922438	      8.92967847	      3.79771359	    -20.30259803	     10.71194460	      8.38921859	     20.45554481	     34.91455575	      7.08824904	     10.42718603	    -18.43919364	     -9.23793088	     -6.87367592	      9.07894129	     -4.51158948	      2.60357733	      7.01180702
      1.70000000	     -8.75526808	     -1.69480666	     -0.04847568	     -0.51386669	      1.21437266	     -0.82573252	     -3.76865293	      8.67838003	      3.18831627	    -21.36381875	     10.12367855	      9.11532172	     21.76267807	     34.81431222	      7.41408436	     10.73063624	    -19.34521535	     -9.55347433	     -7.05826145	      9.00024057	     -4.54730294	      2.38670621	      6.89809931
      1.70500000	     -8.63819107	     -1.59649974	      0.13948953	     -0.50754510	      1.21486880	     -0.82616046	     -3.62714053	      8.41784055	      2.46262752	    -22.49402761	      9.48034413	      9.85535410	     22.91561415	     34.71678052	      7.76623100	     11.04982633	    -20.27292862	     -9.69501853	     -7.18672680	      8.95642544	     -4.57292369	      2.18245861	      6.76888721
      1.71000000	     -8.51522326	     -1.48645485	      0.32128821	     -0.50120291	      1.21549645	     -0.82657972	     -3.44050313	      8.13009991	      1.75382063	    -23.67678407	      8.69781182	     10.53171130	     24.33229108	     34.51902910	      8.11055174	     11.36426355	    -21.04500617	     -9.83461165	     -7.31546941	      8.89520437	     -4.60159049	      1.96977210	      6.65039707
      1.71500000	     -8.42433155	     -1.35349420	      0.51610365	     -0.49483117	      1.21612568	     -0.82702262	     -3.12980585	      7.79179550	      0.96431250	    -25.01088647	      7.85672775	     11.30110025	     25.44324941	     34.30713703	      8.47622823	     11.64503367	    -21.74488793	     -9.82209702	     -7.39207638	      8.87545190	     -4.59612781	      1.73884583	      6.49693468
      1.72000000	     -8.33211823	     -1.22018389	      0.73039319	     -0.48846933	      1.21680292	     -0.82751341	     -2.76438511	      7.42801830	      0.13237676	    -26.41325630	      6.91096177	     12.02480157	     26.56739732	     34.03874581	      8.84752622	     11.93746150	    -22.35823090	     -9.75444458	     -7.47179256	      8.86214095	     -4.59182795	      1.51507354	      6.34152679
      1.72500000	     -8.25299643	     -1.09782227	      0.97913100	     -0.48213512	      1.21748080	     -0.82805799	     -2.32982595	      7.05429887	     -0.73659574	    -27.88395364	      5.82040206	     12.70137856	     27.44622407	     33.75461172	      9.22165396	     12.23674753	    -22.92617641	     -9.57898881	     -7.51417849	      8.89983185	     -4.57552450	      1.30670858	      6.15452936
      1.73000000	     -8.20120537	     -0.94295223	      1.21177888	     -0.47582192	      1.21818883	     -0.82859664	     -1.78369250	      6.61747503	     -1.59085361	    -29.47045080	      4.65683754	     13.33335727	     28.31623822	     33.41644482	      9.60109976	     12.50233440	    -23.34507719	     -9.39899275	     -7.56053362	      8.92854429	     -4.53786882	      1.07414026	      5.97959544
      1.73500000	     -8.16826697	     -0.77184635	      1.44282768	     -0.46954940	      1.21889762	     -0.82912190	     -1.15146555	      6.14479145	     -2.41556148	    -31.14141233	      3.40615429	     13.84572261	     29.05278161	     33.04200172	      9.97816305	     12.73602788	    -23.66049574	     -9.17647369	     -7.59561516	      8.96868966	     -4.48343562	      0.82164241	      5.80812586
      1.74000000	     -8.15788988	     -0.57234139	      1.66106477	     -0.46331512	      1.21960651	     -0.82964544	     -0.43092140	      5.61770374	     -3.20164403	    -32.89247550	      2.11322399	     14.24373558	     29.69902746	     32.62333190	     10.36038407	     12.94657835	    -23.85100422	     -8.94546121	     -7.63762944	      9.01881901	     -4.40757718	      0.54558125	      5.66244180
      1.74500000	     -8.16850282	     -0.38719386	      1.90776852	     -0.45713737	      1.22027274	     -0.83019341	      0.34678109	      5.09497405	     -3.96661627	    -34.66564790	      0.70801011	     14.48079666	     30.00723265	     32.21595886	     10.73147615	     13.13655494	    -24.01715748	     -8.63126718	     -7.61419306	      9.11113612	     -4.32031751	      0.28567988	      5.45260076
      1.75000000	     -8.21997052	     -0.18448730	      2.14212571	     -0.45102159	      1.22089064	     -0.83073357	      1.23142146	      4.53628388	     -4.67407195	    -36.51416510	     -0.67250181	     14.60329899	     30.10883108	     31.80630524	     11.09888896	     13.30046332	    -24.08995366	     -8.30728871	     -7.58755107	      9.20622357	     -4.19476269	      0.01018831	      5.26850087
      1.75500000	     -8.30560741	      0.01790205	      2.37656342	     -0.44497376	      1.22145513	     -0.83126704	      2.19639866	      3.97377397	     -5.31664381	    -38.39791294	     -2.04540676	     14.54729969	     29.87790302	     31.40998137	     11.45241948	     13.43636824	    -24.10988050	     -7.95270324	     -7.54510727	      9.31847093	     -4.04273517	     -0.26451712	      5.07128212
      1.76000000	     -8.41688465	      0.22050882	      2.59878382	     -0.43899499	      1.22198514	     -0.83175401	      3.22755135	      3.42250679	     -5.86133667	    -40.30082534	     -3.40353928	     14.26370765	     29.25849378	     31.01941084	     11.78227109	     13.53471585	    -24.08063075	     -7.57173564	     -7.45097127	      9.44743455	     -3.87192651	     -0.54504032	      4.87845738
      1.76500000	     -8.48291508	      0.44177099	      2.80764907	     -0.43307013	      1.22258167	     -0.83218052	      4.22235671	      2.86491936	     -6.31789871	    -42.18173137	     -4.73648681	     13.90385954	     28.07014236	     30.52345578	     12.09209104	     13.58692707	    -23.94271174	     -7.16200982	     -7.24497359	      9.58259354	     -3.75846201	     -0.84958195	      4.71551766
      1.77000000	     -8.60595383	      0.64004910	      3.01884508	     -0.42723524	      1.22308552	     -0.83261081	      5.32419929	      2.33852319	     -6.71864086	    -44.07592274	     -5.89378526	     13.29024609	     26.95863233	     30.10231546	     12.37895656	     13.63300081	    -23.81466654	     -6.73596271	     -7.04046317	      9.69703736	     -3.59416502	     -1.12767336	      4.52409296
      1.77500000	     -8.77204121	      0.82499551	      3.22952080	     -0.42146677	      1.22351861	     -0.83302266	      6.50790195	      1.84289129	     -7.05355189	    -45.96140881	     -6.80039970	     12.34750311	     26.17362989	     29.73098876	     12.64865755	     13.66561316	    -23.68111726	     -6.33374278	     -6.89902669	      9.79754107	     -3.39730972	     -1.39410158	      4.29441686
      1.78000000	     -8.87926462	      1.00890546	      3.42599509	     -0.41575368	      1.22402929	     -0.83337356	      7.62732606	      1.37359515	     -7.31501292	    -47.79502567	     -7.74865675	     11.52332800	     24.29701959	     29.26400626	     12.88006441	     13.66404415	    -23.48594048	     -5.83528006	     -6.49927093	      9.92070438	     -3.26857260	     -1.66009990	      4.11903417
